<svg xmlns="http://www.w3.org/2000/svg" width="200" height="200" xmlns:v="https://vecta.io/nano"><path d="M101.587 10.493c-6.506-.248-12.938.206-19.144 1.568l-3.632 1.211c-7.265 2.422-13.319 6.054-16.951 10.897l-2.422 3.632-18.162 31.481.236.045c3.54-4.311 8.736-7.741 15.504-9.731l4.843-1.211C110.292 37.488 174.465 84.71 174.465 84.71l21.795-36.324s-49.132-36.154-94.673-37.892z" fill="#eaa500"/><path d="M61.859 48.385l-4.843 1.211C36.432 55.65 30.378 75.023 41.276 91.974c12.108 15.741 37.535 24.216 58.119 18.162l75.07-25.427S110.292 37.488 61.859 48.385z" fill="#ffc131"/><path d="M136.93 145.25a54.49 54.49 0 0 0-58.119-18.162l-75.07 24.216s64.173 48.432 113.816 36.324l3.632-1.211c20.584-6.054 27.849-25.427 15.741-41.168z" fill="#24c8db"/><path d="M117.164 82.453c-4.791.127-9.545.886-14.137 2.256l-75.07 24.216-24.216 42.378 75.07-24.216a54.49 54.49 0 0 1 58.119 18.162c7.375 9.588 7.562 20.524 1.93 28.977l.492.083 24.216-43.589c4.843-8.476 3.632-18.162-2.422-27.849-10.657-13.314-26.934-20.87-43.982-20.418z" fill="#20acb9"/></svg>